<svg id="Capa_1" enable-background="new 0 0 512 512" height="512" viewBox="0 0 512 512" width="512" xmlns="http://www.w3.org/2000/svg" xmlns:xlink="http://www.w3.org/1999/xlink"><linearGradient id="SVGID_1_" gradientUnits="userSpaceOnUse" x1="256" x2="256" y1="466" y2="16"><stop offset="0" stop-color="#fd3a84"/><stop offset="1" stop-color="#ffa68d"/></linearGradient><linearGradient id="SVGID_2_" gradientUnits="userSpaceOnUse" x1="256" x2="256" y1="496" y2="76"><stop offset="0" stop-color="#ffc2cc"/><stop offset="1" stop-color="#fff2f4"/></linearGradient><g id="Alarm"><g><g><path d="m256 16c-124.617 0-226 100.935-226 225v210c0 8.284 6.716 15 15 15h422c8.284 0 15-6.716 15-15v-210c0-124.065-101.383-225-226-225z" fill="url(#SVGID_1_)"/></g></g><g><g><path d="m256 136c8.284 0 15-6.716 15-15v-30c0-8.284-6.716-15-15-15s-15 6.716-15 15v30c0 8.284 6.716 15 15 15zm105 105c0 8.284 6.716 15 15 15h30c8.284 0 15-6.716 15-15s-6.716-15-15-15h-30c-8.284 0-15 6.716-15 15zm-9.541 74.246c-5.857-5.857-15.355-5.857-21.213 0-5.858 5.858-5.857 15.355 0 21.213l21.214 21.213c5.858 5.858 15.355 5.857 21.213 0 5.858-5.858 5.858-15.355 0-21.213zm0-148.492 21.214-21.213c5.858-5.858 5.858-15.355 0-21.213-5.856-5.858-15.354-5.857-21.213 0l-21.214 21.213c-5.857 5.858-5.858 15.355 0 21.213 5.857 5.857 15.355 5.857 21.213 0zm-245.459 89.246h30c8.284 0 15-6.716 15-15s-6.716-15-15-15h-30c-8.284 0-15 6.716-15 15s6.716 15 15 15zm391 180h-226v-121.509c34.192-6.968 60-37.271 60-73.491 0-41.355-33.645-75-75-75s-75 33.645-75 75c0 36.219 25.808 66.522 60 73.491v121.509h-226c-8.284 0-15 6.716-15 15v30c0 8.284 6.716 15 15 15h482c8.284 0 15-6.716 15-15v-30c0-8.284-6.716-15-15-15zm-336.459-269.246c5.858 5.858 15.355 5.857 21.213 0 5.858-5.858 5.857-15.355 0-21.213l-21.214-21.213c-5.857-5.857-15.355-5.857-21.213 0-5.858 5.858-5.858 15.355 0 21.213zm-21.214 169.705c-5.858 5.858-5.858 15.355 0 21.213 5.857 5.858 15.354 5.858 21.213 0l21.214-21.213c5.857-5.858 5.858-15.355 0-21.213-5.856-5.857-15.354-5.858-21.213 0z" fill="url(#SVGID_2_)"/></g></g></g></svg>