<svg id="Layer_1" enable-background="new 0 0 512.044 512.044" height="512" viewBox="0 0 512.044 512.044" width="512" xmlns="http://www.w3.org/2000/svg"><g><path d="m256.021 168.461c-71.505 0-129.679 58.173-129.679 129.678v15h259.356v-15c.001-71.505-58.172-129.678-129.677-129.678z" fill="#ffda44"/><path d="m385.699 298.138c0-71.504-58.173-129.678-129.678-129.678v144.678h129.678z" fill="#ffb655"/><path d="m.017 283.138h512.016v102.388h-512.016z" fill="#bdf7f7"/><path d="m256.021 283.138h256.011v102.388h-256.011z" fill="#7cf0ee"/><g><path d="m414.844 115.604h30v247.402h-30z" fill="#ac5e2e"/></g><g><path d="m414.844 115.604h30v247.402h-30z" fill="#98432b"/></g><path d="m457.682 107.144h-1.159l4.075-4.856c7.625-9.086 21.219-10.274 30.302-2.652l1.857 1.559 19.287-22.979-1.859-1.561c-10.541-8.845-23.896-13.053-37.599-11.855-13.706 1.2-26.125 7.665-34.969 18.205l-7.773 9.263-7.773-9.263c-18.255-21.757-50.81-24.605-72.57-6.348l-1.857 1.559 19.287 22.979 1.855-1.558c9.087-7.624 22.681-6.435 30.304 2.651l4.074 4.856h-1.157c-29.969 0-54.351 24.381-54.351 54.351h30c0-13.427 10.924-24.351 24.351-24.351h55.675c13.427 0 24.351 10.924 24.351 24.351h30c-.001-29.969-24.383-54.351-54.351-54.351z" fill="#bde86b"/><path d="m457.682 107.144h-1.159l4.075-4.856c7.625-9.086 21.219-10.274 30.302-2.652l1.857 1.559 19.287-22.979-1.859-1.561c-10.541-8.845-23.896-13.053-37.599-11.855-13.706 1.2-26.125 7.665-34.969 18.205l-7.773 9.263-7.773-9.263c-18.255-21.757-50.81-24.605-72.57-6.348l-1.857 1.559 19.287 22.979 1.855-1.558c9.087-7.624 22.681-6.435 30.304 2.651l4.074 4.856h-1.157c-29.969 0-54.351 24.381-54.351 54.351h30c0-13.427 10.924-24.351 24.351-24.351h55.675c13.427 0 24.351 10.924 24.351 24.351h30c-.001-29.969-24.383-54.351-54.351-54.351z" fill="#7cc02c"/><g><path d="m67.198 130.605h30v239.921h-30z" fill="#ac5e2e"/></g><path d="m110.035 122.145h-1.158l4.074-4.856c7.625-9.085 21.219-10.274 30.305-2.651l1.857 1.559 19.283-22.981-1.857-1.559c-21.756-18.256-54.312-15.409-72.569 6.349l-7.772 9.263-7.773-9.263c-8.844-10.54-21.263-17.005-34.969-18.204-13.698-1.197-27.059 3.011-37.599 11.855l-1.857 1.559 19.283 22.981 1.857-1.559c9.085-7.625 22.679-6.434 30.304 2.651l4.074 4.855h-1.158c-29.969 0-54.351 24.381-54.351 54.351h30c0-13.427 10.924-24.351 24.351-24.351h55.675c13.427 0 24.351 10.924 24.351 24.351h30c0-29.968-24.382-54.35-54.351-54.35z" fill="#bde86b"/><path d="m389.244 343.366c-23.898-2.676-48.21-4.033-72.258-4.033-27.635 0-55.544 1.79-82.951 5.321l-45.014 5.798c-26.141 3.367-52.761 5.074-79.12 5.074h-109.884v91.917h511.986v-90.331z" fill="#f3d6ae"/><path d="m512.003 357.112-122.759-13.746c-23.898-2.676-48.21-4.033-72.258-4.033-20.277 0-40.699.973-60.965 2.881v105.229h255.981v-90.331z" fill="#edba75"/></g></svg>