<svg id="Layer_1" enable-background="new 0 0 512 512" height="512" viewBox="0 0 512 512" width="512" xmlns="http://www.w3.org/2000/svg"><g><g><g><path d="m472 373.606h-432v-208c0-17.673 14.327-32 32-32h368c17.673 0 32 14.327 32 32z" fill="#463c4b"/></g><g><path d="m440 373.606h-400v-208c0-17.673 14.327-32 32-32h336c17.673 0 32 14.327 32 32z" fill="#555a6e"/></g><g><path d="m72 413.606h368c17.673 0 32-14.327 32-32v-8h-432v8c0 17.673 14.327 32 32 32z" fill="#a5c3dc"/></g><g><path d="m408 413.606h-336c-17.673 0-32-14.327-32-32v-8h400v8c0 17.673-14.327 32-32 32z" fill="#d7e6f0"/></g><g><path d="m208 413.606h72v32h-72z" fill="#a5c3dc"/></g><g><path d="m208 429.606h48v16h-48z" fill="#d7e6f0"/></g><g><path d="m320 469.606h-160v-8c0-8.837 7.163-16 16-16h128c8.837 0 16 7.163 16 16z" fill="#d7e6f0"/></g><g><path d="m320 469.606h-48v-8c0-8.837 7.163-16 16-16h16c8.837 0 16 7.163 16 16z" fill="#a5c3dc"/></g></g><g><g><path d="m274.667 325.606h-186.667c-8.837 0-16-7.163-16-16v-256c0-8.837 7.163-16 16-16h186.667c8.837 0 16 7.163 16 16v256c0 8.836-7.164 16-16 16z" fill="#d7e6f0"/></g><g><path d="m290.667 69.606h-218.667v-16c0-8.837 7.163-16 16-16h186.667c8.837 0 16 7.163 16 16z" fill="#555a6e"/></g><g><circle cx="104" cy="53.606" fill="#289bc3" r="8"/></g><g><circle cx="136" cy="53.606" fill="#ff6e91" r="8"/></g><g><circle cx="168" cy="53.606" fill="#d7e6f0" r="8"/></g><g><path d="m250.667 197.606h-141.334c-4.418 0-8-3.582-8-8v-80c0-4.418 3.582-8 8-8h141.333c4.418 0 8 3.582 8 8v80c.001 4.418-3.581 8-7.999 8z" fill="#a5c3dc"/></g><g><path d="m154.667 293.606h-45.333c-4.418 0-8-3.582-8-8v-64c0-4.418 3.582-8 8-8h45.333c4.418 0 8 3.582 8 8v64c0 4.418-3.582 8-8 8z" fill="#a5c3dc"/></g><g><path d="m250.667 229.606h-66.667c-4.418 0-8-3.582-8-8 0-4.418 3.582-8 8-8h66.667c4.418 0 8 3.582 8 8 0 4.418-3.582 8-8 8z" fill="#a5c3dc"/></g><g><path d="m250.667 261.606h-66.667c-4.418 0-8-3.582-8-8 0-4.418 3.582-8 8-8h66.667c4.418 0 8 3.582 8 8 0 4.418-3.582 8-8 8z" fill="#a5c3dc"/></g><g><path d="m250.667 293.606h-66.667c-4.418 0-8-3.582-8-8 0-4.418 3.582-8 8-8h66.667c4.418 0 8 3.582 8 8 0 4.418-3.582 8-8 8z" fill="#a5c3dc"/></g></g><g><g><path d="m322.667 101.606h29.333v312h-29.333z" fill="#ff8caf"/></g><g><path d="m352 101.606h26.667v312h-26.667z" fill="#ff6e91"/></g><g><path d="m378.667 101.606h29.333v312h-29.333z" fill="#e64178"/></g><g><path d="m365.333 413.606v48h-10.666l-32-48z" fill="#fab991"/></g><g><path d="m365.333 413.606v48h10.667l32-48z" fill="#f0915a"/></g><g><path d="m354.667 461.606 7.338 11.008c1.583 2.375 5.073 2.375 6.656 0l7.339-11.008z" fill="#353744"/></g><g><path d="m322.667 77.606h85.333v24h-85.333z" fill="#a5c3dc"/></g><g><path d="m322.667 77.606h42.667v24h-42.667z" fill="#d7e6f0"/></g><g><path d="m392 37.606h-53.333c-8.837 0-16 7.163-16 16v24h85.333v-24c0-8.837-7.163-16-16-16z" fill="#463c4b"/></g><g><path d="m365.333 37.606h-26.667c-8.837 0-16 7.163-16 16v24h42.667z" fill="#555a6e"/></g></g></g></svg>