<?xml version="1.0" encoding="iso-8859-1"?>
<!-- Generator: Adobe Illustrator 19.0.0, SVG Export Plug-In . SVG Version: 6.00 Build 0)  -->
<svg version="1.1" id="Capa_1" xmlns="http://www.w3.org/2000/svg" xmlns:xlink="http://www.w3.org/1999/xlink" x="0px" y="0px"
	 viewBox="0 0 512.028 512.028" style="enable-background:new 0 0 512.028 512.028;" xml:space="preserve">
<g>
	<path style="fill:#8C6239;" d="M171.771,411.368L91.305,512.028L77.18,500.737l80.467-100.661L171.771,411.368z"/>
	<path style="fill:#8C6239;" d="M434.881,500.73l-14.121,11.297l-80.505-100.635l14.121-11.297L434.881,500.73z"/>
</g>
<path style="fill:#999999;" d="M246.972,415.915h18.083v45.208h-18.083V415.915z"/>
<circle style="fill:#0071BC;" cx="256.014" cy="470.164" r="18.083"/>
<path style="fill:#E6E6E6;" d="M29.974,36.166h452.081v379.748H29.974L29.974,36.166z"/>
<circle style="fill:#29ABE2;" cx="147.515" cy="144.666" r="63.291"/>
<path style="fill:#0071BC;" d="M20.932,0h470.164c9.991,0,18.083,8.092,18.083,18.083s-8.092,18.083-18.083,18.083H20.932
	c-9.991,0-18.083-8.092-18.083-18.083S10.95,0,20.932,0z"/>
<path style="fill:#F7931E;" d="M147.515,81.375c-34.955,0-63.291,28.336-63.3,63.282c0,16.79,6.664,32.893,18.544,44.765
	l44.756-44.756V81.375z"/>
<path style="fill:#DA4836;" d="M204.079,116.384c-10.705-21.438-32.604-34.991-56.564-35.009v63.291L204.079,116.384z"/>
<g>
	<path style="fill:#999999;" d="M75.182,280.29h144.666v18.083H75.182V280.29z"/>
	<path style="fill:#999999;" d="M75.182,316.457h144.666v18.083H75.182V316.457z"/>
	<path style="fill:#999999;" d="M75.182,352.623h108.499v18.083H75.182V352.623z"/>
	<path style="fill:#999999;" d="M147.515,244.124h72.333v18.083h-72.333V244.124z"/>
	<path style="fill:#999999;" d="M292.181,117.541h144.666v18.083H292.181V117.541z"/>
	<path style="fill:#999999;" d="M292.181,153.708h144.666v18.083H292.181V153.708z"/>
	<path style="fill:#999999;" d="M292.181,189.874H400.68v18.083H292.181V189.874z"/>
	<path style="fill:#999999;" d="M364.514,81.375h72.333v18.083h-72.333V81.375z"/>
</g>
<g>
	<path style="fill:#29ABE2;" d="M274.097,325.498h18.083v45.208h-18.083V325.498z"/>
	<path style="fill:#29ABE2;" d="M418.763,307.415h18.083v63.291h-18.083V307.415z"/>
</g>
<path style="fill:#FBB03B;" d="M310.264,298.374h18.083v72.333h-18.083V298.374z"/>
<path style="fill:#29ABE2;" d="M346.43,262.207h18.083v108.499H346.43V262.207z"/>
<path style="fill:#FBB03B;" d="M382.597,289.332h18.083v81.375h-18.083V289.332z"/>
<g>
	<path style="fill:#999999;" d="M111.348,244.124h18.083v18.083h-18.083V244.124z"/>
	<path style="fill:#999999;" d="M328.347,81.375h18.083v18.083h-18.083V81.375z"/>
</g>
<g>
</g>
<g>
</g>
<g>
</g>
<g>
</g>
<g>
</g>
<g>
</g>
<g>
</g>
<g>
</g>
<g>
</g>
<g>
</g>
<g>
</g>
<g>
</g>
<g>
</g>
<g>
</g>
<g>
</g>
</svg>
