<svg id="Capa_1" enable-background="new 0 0 512 512" height="512" viewBox="0 0 512 512" width="512" xmlns="http://www.w3.org/2000/svg"><g><path d="m403.58 346.08c-16.721-12.452-41.167-13.908-64.27 9.08-16.55 16.486-29.588 16.488-46.14 0-23.825-23.736-49.553-24.683-74.36 0-16.551 16.487-29.578 16.488-46.13 0-22.922-22.808-47.431-21.62-64.27-9.08-54.667-109.191 24.987-238.83 147.59-238.83 122.597 0 202.269 129.644 147.58 238.83z" fill="#ffe36e"/><path d="m403.58 346.08c-16.72-12.45-41.17-13.91-64.27 9.08-16.55 16.49-29.59 16.49-46.14 0-12.03-11.99-24.53-18.16-37.17-18.16v-229.75c122.597 0 202.269 129.644 147.58 238.83z" fill="#ffca3e"/><path d="m496.97 332.25c-21.239.01-32.475 11.2-40.681 19.371-7.402 7.371-11.033 10.629-19.543 10.629s-12.141-3.258-19.543-10.629c-8.209-8.175-19.453-19.371-40.711-19.371s-32.5 11.196-40.71 19.371c-7.401 7.371-11.032 10.629-19.541 10.629s-12.139-3.258-19.54-10.628c-8.209-8.175-19.452-19.372-40.709-19.372s-32.499 11.196-40.708 19.372c-7.4 7.37-11.03 10.628-19.539 10.628s-12.139-3.258-19.54-10.628c-8.209-8.175-19.452-19.372-40.709-19.372-21.258 0-32.5 11.196-40.709 19.372-7.401 7.37-11.031 10.628-19.54 10.628-8.508 0-12.138-3.258-19.539-10.628-8.205-8.171-19.441-19.361-40.679-19.372-8.292-.004-15.029 6.707-15.029 15v73.5l50 50h412l50-50v-73.5c0-8.293-6.737-15.004-15.03-15z" fill="#46dcfa"/><path d="m512 347.25v73.5l-50 50h-206v-138.5c21.25 0 32.49 11.2 40.7 19.37 7.4 7.37 11.03 10.63 19.54 10.63s12.14-3.26 19.54-10.63c8.21-8.17 19.45-19.37 40.71-19.37s32.5 11.2 40.71 19.37c7.4 7.37 11.04 10.63 19.55 10.63s12.14-3.26 19.54-10.63c8.2-8.17 19.44-19.36 40.68-19.37 8.29 0 15.03 6.71 15.03 15z" fill="#00c4eb"/><path d="m497 402.25c-21.258 0-32.501 11.196-40.711 19.371-7.402 7.371-11.033 10.629-19.543 10.629s-12.141-3.258-19.543-10.629c-8.209-8.175-19.453-19.371-40.711-19.371s-32.5 11.196-40.71 19.371c-7.401 7.371-11.032 10.629-19.541 10.629s-12.139-3.258-19.54-10.628c-8.209-8.175-19.452-19.372-40.709-19.372s-32.499 11.196-40.708 19.372c-7.4 7.37-11.03 10.628-19.539 10.628s-12.139-3.258-19.54-10.628c-8.209-8.175-19.452-19.372-40.709-19.372-21.258 0-32.5 11.196-40.709 19.372-7.401 7.37-11.031 10.628-19.54 10.628-8.508 0-12.138-3.258-19.539-10.628-8.208-8.176-19.451-19.372-40.708-19.372-8.284 0-15 6.716-15 15v62.5c0 8.284 6.716 15 15 15h482c8.191 0 14.867-6.57 14.998-14.76v-62.5c.134-8.379-6.628-15.24-14.998-15.24z" fill="#00c4eb"/><path d="m512 417.26v62.73c-.13 8.19-6.81 14.76-15 14.76h-241v-92.5c21.25 0 32.49 11.2 40.7 19.37 7.4 7.37 11.03 10.63 19.54 10.63s12.14-3.26 19.54-10.63c8.21-8.17 19.45-19.37 40.71-19.37s32.5 11.2 40.71 19.37c7.4 7.37 11.04 10.63 19.55 10.63s12.14-3.26 19.54-10.63c8.21-8.17 19.45-19.37 40.71-19.37 8.29 0 15 6.725 15 15.01z" fill="#00aae8"/><path d="m256 17.25c-8.284 0-15 6.716-15 15v30c0 8.284 6.716 15 15 15s15-6.716 15-15v-30c0-8.284-6.716-15-15-15z" fill="#ffca3e"/><path d="m271 32.25v30c0 8.28-6.72 15-15 15v-60c8.28 0 15 6.72 15 15z" fill="#fcb216"/><g fill="#ffca3e"><path d="m148.99 56.904c-4.142-7.174-13.316-9.633-20.49-5.49-7.174 4.142-9.632 13.316-5.49 20.49l15 25.981c4.163 7.21 13.35 9.613 20.49 5.49 7.174-4.142 9.632-13.316 5.49-20.49z"/><path d="m81.635 154.26-25.981-15c-7.175-4.144-16.349-1.684-20.49 5.49-4.142 7.174-1.684 16.348 5.49 20.49l25.981 15c7.142 4.125 16.331 1.715 20.49-5.49 4.142-7.174 1.684-16.348-5.49-20.49z"/><path d="m46 257.25h-30c-8.284 0-15 6.716-15 15s6.716 15 15 15h30c8.284 0 15-6.716 15-15s-6.716-15-15-15z"/></g><path d="m496 257.25h-30c-8.284 0-15 6.716-15 15s6.716 15 15 15h30c8.284 0 15-6.716 15-15s-6.716-15-15-15z" fill="#fcb216"/><path d="m476.836 144.75c-4.142-7.174-13.315-9.633-20.49-5.49l-25.981 15c-7.174 4.142-9.632 13.316-5.49 20.49 4.163 7.21 13.35 9.613 20.49 5.49l25.981-15c7.175-4.142 9.633-13.316 5.49-20.49z" fill="#fcb216"/><path d="m383.5 51.414c-7.175-4.144-16.349-1.684-20.49 5.49l-15 25.981c-4.142 7.174-1.684 16.348 5.49 20.49 7.142 4.125 16.331 1.715 20.49-5.49l15-25.981c4.142-7.174 1.684-16.348-5.49-20.49z" fill="#fcb216"/></g></svg>