<?xml version="1.0" encoding="iso-8859-1"?>
<!-- Generator: Adobe Illustrator 19.0.0, SVG Export Plug-In . SVG Version: 6.00 Build 0)  -->
<svg version="1.1" id="Capa_1" xmlns="http://www.w3.org/2000/svg" xmlns:xlink="http://www.w3.org/1999/xlink" x="0px" y="0px"
	 viewBox="0 0 512.001 512.001" style="enable-background:new 0 0 512.001 512.001;" xml:space="preserve">
<circle style="fill:#0098C4;" cx="256.006" cy="256.001" r="248.414"/>
<path style="fill:#004E86;" d="M383.357,503.544H127.785c-53.591,0-97.035-43.444-97.035-97.035l0,0h449.64l0,0
	C480.39,460.1,436.948,503.544,383.357,503.544z"/>
<polyline style="fill:#191B28;" points="504.41,310.825 207.821,310.825 155.883,310.825 7.596,310.825 7.596,273.966 
	155.883,273.966 207.821,273.966 504.41,273.966 "/>
<polyline style="fill:#00345C;" points="207.827,406.509 207.827,503.544 155.883,503.544 155.883,406.509 "/>
<path style="fill:#FFD522;" d="M386.601,31.448c8.307,9.206,13.407,21.36,13.407,34.735c0,28.678-23.248,51.927-51.927,51.927
	c-13.376,0-25.53-5.1-34.735-13.407c6.691,25.94,30.176,45.13,58.205,45.13c33.236,0,60.179-26.943,60.179-60.179
	C431.731,61.625,412.54,38.141,386.601,31.448z"/>
<g>
	<rect x="155.883" y="89.946" style="fill:#191B28;" width="51.944" height="316.562"/>
	<rect x="348.527" y="240.737" style="fill:#191B28;" width="15.182" height="39.818"/>
	<rect x="426.059" y="216.364" style="fill:#191B28;" width="15.182" height="64.191"/>
	<rect x="271.006" y="216.364" style="fill:#191B28;" width="15.182" height="64.191"/>
	<rect x="77.532" y="216.364" style="fill:#191B28;" width="15.182" height="64.191"/>
	<path style="fill:#191B28;" d="M356.118,245.829c-83.409,0-151.728-65.849-155.7-148.291h-37.126
		c-3.972,82.443-72.29,148.291-155.7,148.291c-4.192,0-7.591-3.399-7.591-7.591s3.399-7.591,7.591-7.591
		c77.582,0,140.7-63.118,140.7-140.7c0-4.192,3.399-7.591,7.591-7.591h51.944c4.192,0,7.591,3.399,7.591,7.591
		c0,77.582,63.117,140.7,140.7,140.7s140.701-63.118,140.701-140.701c0-4.192,3.398-7.591,7.591-7.591
		c4.193,0,7.591,3.399,7.591,7.591C512.001,175.9,442.072,245.829,356.118,245.829z"/>
</g>
<g>
	<path style="fill:#FFF6A6;" d="M315.379,460.7h-36.436c-4.193,0-7.591-3.399-7.591-7.591s3.398-7.591,7.591-7.591h36.436
		c4.193,0,7.591,3.399,7.591,7.591S319.573,460.7,315.379,460.7z"/>
	<path style="fill:#FFF6A6;" d="M397.36,481.955h-36.436c-4.193,0-7.591-3.399-7.591-7.591s3.398-7.591,7.591-7.591h36.436
		c4.193,0,7.591,3.399,7.591,7.591S401.553,481.955,397.36,481.955z"/>
	<path style="fill:#FFF6A6;" d="M91.706,457.664H55.269c-4.192,0-7.591-3.399-7.591-7.591c0-4.192,3.399-7.591,7.591-7.591h36.436
		c4.192,0,7.591,3.399,7.591,7.591C99.296,454.265,95.898,457.664,91.706,457.664z"/>
	<path style="fill:#FFF6A6;" d="M458.593,453.11h-36.436c-4.193,0-7.591-3.399-7.591-7.591s3.398-7.591,7.591-7.591h36.436
		c4.193,0,7.591,3.399,7.591,7.591S462.785,453.11,458.593,453.11z"/>
</g>
<g>
	<path style="fill:#FFD522;" d="M300.539,169.728c-6.853,0-10.106-8.726-5.043-13.262c2.535-2.271,6.425-2.531,9.253-0.645
		c2.64,1.761,3.918,5.084,3.149,8.162C307.066,167.316,303.975,169.728,300.539,169.728z"/>
	<path style="fill:#FFD522;" d="M427.041,347.466c-6.853,0-10.106-8.726-5.043-13.262c2.535-2.271,6.425-2.531,9.253-0.645
		c2.64,1.761,3.918,5.084,3.149,8.162C433.568,345.054,430.477,347.466,427.041,347.466z"/>
	<path style="fill:#FFD522;" d="M260.053,53.33c-3.256,0-6.17-2.14-7.201-5.211c-1.039-3.097,0.11-6.607,2.743-8.523
		c5.603-4.078,13.498,1.261,11.817,7.988C266.58,50.917,263.487,53.33,260.053,53.33z"/>
	<path style="fill:#FFD522;" d="M71.791,153.534c-6.674,0-10.101-8.426-5.252-13.064c2.202-2.106,5.538-2.695,8.327-1.466
		c3.014,1.329,4.873,4.594,4.456,7.869C78.842,150.626,75.592,153.534,71.791,153.534z"/>
</g>
<g>
</g>
<g>
</g>
<g>
</g>
<g>
</g>
<g>
</g>
<g>
</g>
<g>
</g>
<g>
</g>
<g>
</g>
<g>
</g>
<g>
</g>
<g>
</g>
<g>
</g>
<g>
</g>
<g>
</g>
</svg>
