<?xml version="1.0" encoding="iso-8859-1"?>
<!-- Generator: Adobe Illustrator 19.0.0, SVG Export Plug-In . SVG Version: 6.00 Build 0)  -->
<svg version="1.1" id="Capa_1" xmlns="http://www.w3.org/2000/svg" xmlns:xlink="http://www.w3.org/1999/xlink" x="0px" y="0px"
	 viewBox="0 0 512.001 512.001" style="enable-background:new 0 0 512.001 512.001;" xml:space="preserve">
<path style="fill:#DFE7EF;" d="M507.665,32.923v315.78c0,18.175-14.746,32.921-32.933,32.921H37.257
	c-18.186,0-32.921-14.746-32.921-32.921V32.923c0-18.186,14.735-32.921,32.921-32.921h437.476
	C492.919,0.002,507.665,14.737,507.665,32.923z"/>
<path style="fill:#3A536E;" d="M507.665,32.921v51.694H4.339V32.921C4.339,14.735,19.074,0,37.26,0h437.473
	C492.919,0,507.665,14.735,507.665,32.921z"/>
<circle style="fill:#FF598E;" cx="56.782" cy="41.477" r="16.956"/>
<circle style="fill:#FCDF5D;" cx="113.868" cy="41.477" r="16.956"/>
<circle style="fill:#4BC999;" cx="170.954" cy="41.477" r="16.956"/>
<path style="fill:#B8C9DB;" d="M378.992,356.923l24.702,24.702H134.242c-44.836-55.433-41.483-136.895,10.055-188.434l26.671-26.671
	c55.112-55.112,144.483-55.112,199.595,0C422.709,218.668,425.519,301.469,378.992,356.923z"/>
<path style="fill:#3DA4D4;" d="M333.174,298.852L486.172,451.85c13.763,13.763,13.763,36.066,0,49.829
	c-13.763,13.763-36.066,13.763-49.829,0L283.345,348.68"/>
<path style="fill:#3080A6;" d="M458.743,479.278L342.217,362.752l-22.4,22.4l116.526,116.526c13.763,13.763,36.066,13.763,49.829,0
	c4.03-4.03,6.87-8.794,8.54-13.859C482.477,491.852,468.475,489.012,458.743,479.278z"/>
<circle style="fill:#FF598E;" cx="283.02" cy="266.331" r="141.138"/>
<circle style="fill:#77C7ED;" cx="283.02" cy="266.331" r="90.537"/>
<path style="fill:#3DA4D4;" d="M323.469,221.894c33.695,33.695,35.252,87.328,4.724,122.897c6.736-3.884,13.087-8.688,18.847-14.448
	c35.357-35.357,35.357-92.68,0-128.037s-92.68-35.357-128.037,0c-1.662,1.662-3.218,3.386-4.724,5.14
	C248.89,187.494,293.873,192.297,323.469,221.894z"/>
<path style="fill:#E8415A;" d="M283.021,364.719c-26.282,0-50.991-10.234-69.575-28.818c-18.584-18.584-28.82-43.293-28.82-69.575
	c0-26.282,10.235-50.991,28.82-69.575s43.293-28.818,69.575-28.818c26.282,0,50.991,10.234,69.575,28.818s28.82,43.293,28.82,69.575
	c0,26.282-10.235,50.991-28.82,69.575C334.012,354.484,309.303,364.719,283.021,364.719z M283.021,183.647
	c-22.084,0-42.846,8.6-58.462,24.216s-24.216,36.378-24.216,58.462s8.6,42.846,24.216,58.462
	c15.616,15.616,36.378,24.216,58.462,24.216s42.846-8.6,58.462-24.216C357.1,309.172,365.7,288.41,365.7,266.326
	s-8.6-42.846-24.216-58.462l0,0C325.867,192.247,305.105,183.647,283.021,183.647z"/>
<g>
</g>
<g>
</g>
<g>
</g>
<g>
</g>
<g>
</g>
<g>
</g>
<g>
</g>
<g>
</g>
<g>
</g>
<g>
</g>
<g>
</g>
<g>
</g>
<g>
</g>
<g>
</g>
<g>
</g>
</svg>
