<svg height="512" viewBox="0 0 512 512" width="512" xmlns="http://www.w3.org/2000/svg"><g id="flat"><g fill="#fbb540"><path d="m323.9 93.628a8 8 0 0 1 -7.378-11.088l15.432-36.9a8 8 0 0 1 14.762 6.173l-15.432 36.9a8 8 0 0 1 -7.384 4.915z"/><path d="m189.2 93.172a8 8 0 0 1 -7.4-4.965l-15.186-37.007a8 8 0 0 1 14.8-6.073l15.186 37.007a8 8 0 0 1 -7.4 11.038z"/><path d="m93.623 188.1a7.985 7.985 0 0 1 -3.083-.621l-36.9-15.432a8 8 0 0 1 6.172-14.762l36.9 15.432a8 8 0 0 1 -3.09 15.383z"/><path d="m56.167 337.986a8 8 0 0 1 -3.039-15.4l37.006-15.186a8 8 0 0 1 6.072 14.8l-37.006 15.186a7.981 7.981 0 0 1 -3.033.6z"/><path d="m337.987 455.838a8 8 0 0 1 -7.4-4.965l-15.187-37.007a8 8 0 0 1 14.8-6.073l15.186 37.007a8 8 0 0 1 -7.4 11.038z"/><path d="m455.274 339.336a7.985 7.985 0 0 1 -3.083-.621l-36.9-15.432a8 8 0 0 1 6.173-14.762l36.9 15.432a8 8 0 0 1 -3.089 15.383z"/><path d="m418.833 189.2a8 8 0 0 1 -3.039-15.4l37.006-15.186a8 8 0 0 1 6.072 14.8l-37.006 15.186a7.981 7.981 0 0 1 -3.033.6z"/><path d="m256 88a8 8 0 0 1 -8-8v-56a8 8 0 0 1 16 0v56a8 8 0 0 1 -8 8z"/><path d="m137.206 137.206a7.974 7.974 0 0 1 -5.657-2.343l-39.6-39.6a8 8 0 0 1 11.315-11.314l39.6 39.6a8 8 0 0 1 -5.657 13.657z"/><path d="m88 256h-56a8 8 0 0 1 0-16h56a8 8 0 0 1 0 16z"/><path d="m256 480a8 8 0 0 1 -8-8v-56a8 8 0 0 1 16 0v56a8 8 0 0 1 -8 8z"/><path d="m414.392 414.392a7.978 7.978 0 0 1 -5.658-2.343l-39.6-39.6a8 8 0 1 1 11.314-11.314l39.6 39.6a8 8 0 0 1 -5.657 13.657z"/><path d="m480 256h-56a8 8 0 0 1 0-16h56a8 8 0 0 1 0 16z"/><path d="m374.794 137.206a8 8 0 0 1 -5.657-13.657l39.6-39.6a8 8 0 0 1 11.315 11.314l-39.6 39.6a7.974 7.974 0 0 1 -5.658 2.343z"/><circle cx="256" cy="248" r="144"/></g><g fill="#ea9d2d"><circle cx="208" cy="232" r="16"/><circle cx="304" cy="232" r="16"/><path d="m256 283.866a83.974 83.974 0 0 1 -26.529-4.277 8 8 0 1 1 5.058-15.178 68.34 68.34 0 0 0 42.942 0 8 8 0 1 1 5.058 15.178 83.974 83.974 0 0 1 -26.529 4.277z"/></g><path d="m240 344h-8a72.01 72.01 0 0 0 -136.926-31.158 48.043 48.043 0 0 0 -37.746 35.958 56 56 0 0 0 -33.328 51.2 56 56 0 0 0 56 56h160a56 56 0 0 0 56-56 56 56 0 0 0 -56-56z" fill="#eaeae8"/><path d="m296 400a56 56 0 0 1 -56 56h-160a56.038 56.038 0 0 1 -55.43-64.01 56 56 0 0 0 55.43 48.01h160a56.008 56.008 0 0 0 55.43-48 55.494 55.494 0 0 1 .57 8z" fill="#cbcbcb"/></g></svg>