<?xml version="1.0" encoding="iso-8859-1"?>
<!-- Generator: Adobe Illustrator 19.0.0, SVG Export Plug-In . SVG Version: 6.00 Build 0)  -->
<svg version="1.1" id="Capa_1" xmlns="http://www.w3.org/2000/svg" xmlns:xlink="http://www.w3.org/1999/xlink" x="0px" y="0px"
	 viewBox="0 0 512.001 512.001" style="enable-background:new 0 0 512.001 512.001;" xml:space="preserve">
<path style="fill:#707487;" d="M256,0c-49.672,0-89.935,40.266-89.935,89.937c0,1.32,0,125.529,0,126.851
	c0,6.585,5.339,11.924,11.924,11.924c17.042,0,30.559,0,41.339,0h73.142c9.594,0,22.887,0,41.545,0
	c6.585,0,11.923-5.339,11.923-11.924c0-12.026,0-35.035,0-58.786v-33.564c0-14.071,0-26.453,0-34.501
	C345.938,40.266,305.674,0,256,0z"/>
<path style="fill:#5B5D6E;" d="M186.67,216.788c0-1.322,0-125.531,0-126.851c0-46.186,34.814-84.234,79.633-89.346
	C262.921,0.205,259.485,0,256,0c-49.672,0-89.935,40.266-89.935,89.937c0,1.32,0,125.529,0,126.851
	c0,6.585,5.339,11.924,11.924,11.924c7.536,0,14.379,0,20.605,0C192.009,228.712,186.67,223.372,186.67,216.788z"/>
<path style="fill:#F0A479;" d="M321.092,116.524v47.99c0,0.468-0.026,0.929-0.035,1.394c17.123,3.281,31.381-9.023,31.381-24.69
	C352.438,125.563,338.198,113.269,321.092,116.524z"/>
<path style="fill:#E59770;" d="M341.868,120.791c-5.561-3.945-12.86-5.773-20.776-4.267v47.99c0,0.468-0.025,0.929-0.035,1.394
	c7.93,1.519,15.242-0.308,20.811-4.26V120.791z"/>
<path style="fill:#F0A479;" d="M256.93,226.651c-14.525,0-27.24-4.095-37.55-10.909v33.4l36.571,45.14l36.57-45.14v-33.273
	C282.322,222.674,270.083,226.651,256.93,226.651z"/>
<path style="fill:#E59770;" d="M239.984,224.661c-7.619-1.846-14.532-4.906-20.605-8.919v33.4l20.605,25.433V224.661z"/>
<path style="fill:#F0A479;" d="M316.999,104.47c-8.005-2.433-23.691-8.84-38.802-24.425c-2.466-2.543-6.504-2.355-8.763,0.219
	c-10.588,12.075-39.069,41.585-74.764,54.763c-2.341,0.865-3.897,3.096-3.897,5.593v23.793c0,33.594,26.318,64.298,66.157,64.298
	c35.454,0,64.298-28.844,64.298-64.298v-54.239C321.228,107.55,319.511,105.233,316.999,104.47z"/>
<path style="fill:#E59770;" d="M211.378,164.414v-36.926c-5.352,2.844-10.934,5.407-16.708,7.539
	c-2.341,0.865-3.897,3.097-3.897,5.593v23.793c0,33.594,26.318,64.298,66.157,64.298c3.184,0,6.312-0.241,9.373-0.69
	C235.276,223.469,211.378,196.684,211.378,164.414z"/>
<path style="fill:#E4EAF8;" d="M389.265,284.549l-96.745-37.467l-36.57,45.14l-36.571-45.14l-96.644,37.467
	c0,0-35.782,14.71-35.782,55.502c0,36.91,0,130.208,0,160.026c0,6.585,5.339,11.924,11.924,11.924c5.018,0,309.152,0,314.247,0
	c6.585,0,11.924-5.339,11.924-11.924c0-29.818,0-123.116,0-160.026C425.047,299.259,389.265,284.549,389.265,284.549z"/>
<g>
	<path style="fill:#D8DCE5;" d="M107.558,500.076c0-29.818,0-138.57,0-175.48c0-18.15,7.086-31.125,14.95-39.949
		c-2.897,1.267-35.555,16.42-35.555,55.403c0,36.91,0,130.208,0,160.026c0,6.585,5.339,11.924,11.924,11.924
		c0.756,0,8.312,0,20.605,0C112.897,512,107.558,506.661,107.558,500.076z"/>
	<path style="fill:#D8DCE5;" d="M300.105,315.417l27.347-54.807l-34.932-13.529l-36.57,45.14l35.655,25.322
		C294.49,319.594,298.524,318.585,300.105,315.417z"/>
	<path style="fill:#D8DCE5;" d="M211.844,315.417l-27.347-54.807l34.932-13.529l36.57,45.14l-35.655,25.322
		C217.46,319.594,213.425,318.585,211.844,315.417z"/>
</g>
<g>
	<path style="fill:#FF5050;" d="M232.422,312.598c-15.245,15.096-24.312,37.102-27.617,46.241c-0.846,2.34,0.296,4.929,2.598,5.874
		l22.576,9.258c2.652,1.088,5.664-0.466,6.279-3.266c4.124-18.791,11.69-33.702,17.119-42.68
		C243.924,327.08,236.004,320.992,232.422,312.598z"/>
	<path style="fill:#FF5050;" d="M279.508,312.525c-3.554,8.403-11.451,14.508-20.889,15.488
		c5.429,8.976,13.001,23.893,17.126,42.692c0.614,2.8,3.626,4.354,6.279,3.266l22.575-9.258c2.303-0.944,3.445-3.533,2.599-5.874
		C303.888,349.686,294.798,327.623,279.508,312.525z"/>
</g>
<g>
	<path style="fill:#ED3A3A;" d="M225.411,368.306c2.596-8.647,8.752-26.86,18.663-43.088c-5.192-2.732-9.334-7.187-11.652-12.62
		c-15.245,15.096-24.312,37.102-27.617,46.241c-0.846,2.341,0.296,4.929,2.599,5.874l18.022,7.391
		C225.069,370.915,225.027,369.584,225.411,368.306z"/>
	<path style="fill:#ED3A3A;" d="M289.709,326.949c0.347-0.252,0.688-0.513,1.024-0.783c-3.279-4.798-7.016-9.484-11.226-13.641
		c-3.555,8.403-11.451,14.508-20.889,15.488c5.43,8.978,13.003,23.897,17.129,42.701c0.614,2.797,3.628,4.344,6.277,3.257
		l11.398-4.674c-2.541-9.88-5.608-18.574-8.589-25.805C282.365,337.507,284.469,330.75,289.709,326.949z"/>
</g>
<g>
	<path style="fill:#D8DCE5;" d="M364.148,346.158c-4.267,0-7.727,3.459-7.727,7.727V512c5.447,0,10.613,0,15.454,0V353.884
		C371.875,349.617,368.416,346.158,364.148,346.158z"/>
	<path style="fill:#D8DCE5;" d="M155.58,512V353.884c0-4.267-3.459-7.727-7.727-7.727c-4.267,0-7.727,3.459-7.727,7.727V512
		C144.967,512,150.134,512,155.58,512z"/>
	<path style="fill:#D8DCE5;" d="M263.676,512V398.575c0-4.267-3.459-7.727-7.727-7.727c-4.267,0-7.727,3.459-7.727,7.727V512
		C253.37,512,258.529,512,263.676,512z"/>
</g>
<path style="fill:#ED3A3A;" d="M255.976,292.24l-25.351,18.004c3.187,10.982,13.315,19.013,25.325,19.013
	c12.021,0,22.157-8.046,25.334-19.044L255.976,292.24z"/>
<path style="fill:#DB2A2A;" d="M253.477,308.266l12.532-8.9l-10.033-7.126l-25.351,18.004c3.187,10.982,13.315,19.013,25.325,19.013
	c3.556,0,6.939-0.719,10.033-1.995c-6.229-2.568-11.263-7.444-14.022-13.57C251.093,311.766,251.754,309.49,253.477,308.266z"/>
<g>
</g>
<g>
</g>
<g>
</g>
<g>
</g>
<g>
</g>
<g>
</g>
<g>
</g>
<g>
</g>
<g>
</g>
<g>
</g>
<g>
</g>
<g>
</g>
<g>
</g>
<g>
</g>
<g>
</g>
</svg>
